<svg width="61" height="60" viewBox="0 0 61 60" fill="none" xmlns="http://www.w3.org/2000/svg">
<path d="M2.9491 32.059C1.0389 34.6371 0.499899 37.9379 1.4686 41.1098C2.6678 45.02 6.617 47.8481 11.0702 47.9887L12.9413 48.0473L12.9999 49.9184C13.1601 54.8403 16.7382 59.1098 21.328 59.8598C24.2694 60.3286 27.2264 59.52 29.4686 57.6098L30.9998 56.2504L32.3279 57.4496C32.5584 57.6605 32.7966 57.848 33.0466 58.0394C35.6247 59.9496 38.9255 60.4886 42.0974 59.5199C46.0076 58.3207 48.8357 54.3715 48.9763 49.9183L49.0349 48.0394L50.9138 47.9809C55.363 47.8402 59.3122 45.012 60.5154 41.1019C61.4842 37.93 60.9451 34.641 59.0349 32.0511C58.8435 31.8011 58.656 31.5629 58.4451 31.3324L57.2459 29.9926L58.4451 28.6528C58.656 28.4223 58.8435 28.184 59.0349 27.934C60.9451 25.3442 61.4841 22.0434 60.5154 18.8832C59.3162 14.973 55.367 12.145 50.9138 12.0044L49.0349 11.9458L48.9763 10.0669C48.8357 5.61766 46.0075 1.66846 42.0974 0.477056C38.9255 -0.491694 35.6286 0.0473655 33.0466 1.95756C32.7966 2.14897 32.5584 2.33647 32.3279 2.5474L30.9998 3.7388L29.449 2.3794C27.2302 0.488796 24.2576 -0.331503 21.3201 0.148897C16.7303 0.898897 13.1482 5.1684 12.992 10.0903L12.9334 11.9614L11.0623 12.02C6.6131 12.1606 2.6639 14.9888 1.4607 18.8989C0.491949 22.0708 1.03101 25.3598 2.9412 27.9497C3.13261 28.1997 3.32011 28.438 3.53104 28.6802L4.72244 30.0083L3.53104 31.3364C3.3201 31.5668 3.12088 31.8168 2.9412 32.0668L2.9491 32.059ZM33.0001 10C33.0001 8.07811 33.8907 6.32031 35.4415 5.17191C36.3634 4.49222 38.2931 3.48051 40.9415 4.30082C43.2931 5.01957 45.0001 7.60162 45.0001 10.4297C45.0001 13.5 47.5001 16 50.5704 16C53.3985 16 55.9806 17.7109 56.6993 20.0586C57.5196 22.7188 56.5001 24.6484 55.8282 25.5586C54.6876 27.1094 52.9298 28 51.0001 28H47.0001C45.8985 28 45.0001 28.8985 45.0001 30C45.0001 31.1016 45.8985 32 47.0001 32H51.0001C52.922 32 54.6798 32.8906 55.8282 34.4414C56.5079 35.3516 57.5196 37.2812 56.6993 39.9414C55.9806 42.293 53.3985 44 50.5704 44C47.5001 44 45.0001 46.5 45.0001 49.5703C45.0001 52.3984 43.2892 54.9805 40.9415 55.6992C40.2931 55.8984 39.6407 56 39.0001 56C37.3712 56 36.172 55.3594 35.4415 54.8281C33.8907 53.6797 33.0001 51.9179 33.0001 50V10ZM15.0001 28H11.0001C9.0782 28 7.3204 27.1094 6.172 25.5586C5.49231 24.6485 4.4806 22.7188 5.30091 20.0586C6.01966 17.707 8.60171 16 11.4298 16C14.5001 16 17.0001 13.5 17.0001 10.4297C17.0001 7.35941 19.1915 4.53911 21.9806 4.08991C24.0197 3.76179 26.0001 4.42975 27.4025 5.91801C28.4337 7.01961 29.0041 8.51961 29.0041 10.1485V49.8475C29.0041 51.4686 28.4338 52.9764 27.4025 54.078C26.2423 55.3163 24.6837 55.9999 22.9923 55.9999C22.6525 55.9999 22.3126 55.9687 21.9806 55.9218C19.1915 55.4726 17.0001 52.6835 17.0001 49.5702C17.0001 46.4608 14.5001 43.9999 11.4298 43.9999C8.60171 43.9999 6.01961 42.289 5.30091 39.9413C4.4806 37.2811 5.50013 35.3515 6.172 34.4413C7.3204 32.8905 9.0822 31.9999 11.0001 31.9999H15.0001C16.1017 31.9999 17.0001 31.1014 17.0001 29.9999C17.0001 28.8983 16.1017 28 15.0001 28Z" fill="black"/>
</svg>
