<svg width="56" height="56" viewBox="0 0 56 56" fill="none" xmlns="http://www.w3.org/2000/svg">
<path d="M48 22V41C48 42.1016 48.8984 43 50 43C51.1016 43 52 42.1016 52 41V22C52 20.8984 51.1016 20 50 20C48.8984 20 48 20.8984 48 22Z" fill="#7C3AED"/>
<path d="M32 27V41C32 42.1016 32.8984 43 34 43C35.1016 43 36 42.1016 36 41V27C36 25.8984 35.1016 25 34 25C32.8984 25 32 25.8984 32 27Z" fill="#7C3AED"/>
<path d="M2 0C0.8984 0 0 0.89844 0 2V48C0 52.4102 3.5898 56 8 56H54C55.1016 56 56 55.1016 56 54C56 52.8984 55.1016 52 54 52H8C5.7891 52 4 50.2109 4 48V2C4 0.8984 3.10156 0 2 0Z" fill="#7C3AED"/>
<path d="M54 9.96902C54.5391 9.96902 55.0586 9.7698 55.4102 9.41043C55.7891 9.03152 56 8.53152 56 7.98853C56 7.44947 55.7891 6.94943 55.4102 6.57833L53.5899 4.75803C51.1602 2.32833 47.9297 0.988525 44.4883 0.988525C41.0469 0.988525 37.8164 2.32833 35.3867 4.75803L31.7461 8.39862C30.0664 10.0705 27.8477 11.0002 25.4766 11.0002C23.1055 11.0002 20.8868 10.0783 19.2071 8.41043L17.3868 6.59013C17.0079 6.21122 16.5079 6.00029 15.9766 6.00029C15.4453 6.00029 14.9375 6.21123 14.5664 6.59013C14.1875 6.96904 13.9766 7.46904 13.9766 8.00033C13.9766 8.53162 14.1875 9.03942 14.5664 9.41052L16.3867 11.2308C18.8164 13.6605 22.0469 15.0003 25.4883 15.0003C28.9297 15.0003 32.1602 13.6605 34.5899 11.2308L38.2305 7.59023C39.9102 5.91833 42.1289 4.98862 44.5 4.98862C46.8711 4.98862 49.0898 5.9105 50.7695 7.57842L52.5898 9.39873C52.9414 9.75029 53.4609 9.95732 54 9.95732V9.96902Z" fill="#7C3AED"/>
<path d="M16 27V41C16 42.1016 16.8984 43 18 43C19.1016 43 20 42.1016 20 41V27C20 25.8984 19.1016 25 18 25C16.8984 25 16 25.8984 16 27Z" fill="#7C3AED"/>
</svg>
