<svg width="61" height="52" viewBox="0 0 61 52" fill="none" xmlns="http://www.w3.org/2000/svg">
<path d="M16 49.9995C16 52.6675 12 52.6675 12 49.9995C12 47.3315 16 47.3315 16 49.9995Z" fill="black"/>
<path d="M32 49.9995C32 52.6675 28 52.6675 28 49.9995C28 47.3315 32 47.3315 32 49.9995Z" fill="black"/>
<path d="M48 49.9995C48 52.6675 44 52.6675 44 49.9995C44 47.3315 48 47.3315 48 49.9995Z" fill="black"/>
<path d="M2 19.9996H12.039L12.3671 21.6012C14.0663 29.941 21.4882 35.9992 30.0081 35.9992C38.5276 35.9992 45.9491 29.9406 47.6491 21.6012L47.9772 19.9996H58.0163C59.1179 19.9996 60.0163 19.1012 60.0163 17.9996C60.0163 16.898 59.1178 15.9996 58.0163 15.9996H47.9772L47.6491 14.398C45.9499 6.0582 38.528 0 30.0081 0C21.4886 0 14.0671 6.0586 12.3671 14.398L12.039 15.9996H2C0.8984 15.9996 0 16.898 0 17.9996C0 19.1012 0.89844 19.9996 2 19.9996ZM30 3.9996C37.7188 3.9996 44 10.2808 44 17.9996C44 25.7184 37.7188 31.9996 30 31.9996C22.2812 31.9996 16 25.7184 16 17.9996C16 10.2808 22.2812 3.9996 30 3.9996Z" fill="black"/>
</svg>
