<svg width="45" height="60" viewBox="0 0 45 60" fill="none" xmlns="http://www.w3.org/2000/svg">
<path d="M7.85949 40H15.8087L13.5782 52.27C13.2266 54.1919 13.7501 56.1489 15.0001 57.6489C16.2501 59.1489 18.0899 60.0083 20.0392 60.0083C22.2384 60.0083 24.2775 58.9185 25.5001 57.0864L42.8981 30.9844C44.3473 28.8125 44.4762 26.0352 43.2496 23.7344C42.0191 21.4336 39.6286 20.0039 37.0191 20.0039H31.8707L35.4488 11.0547C36.4488 8.56641 36.1403 5.7656 34.6403 3.543C33.1403 1.3242 30.6403 0.00390625 27.9684 0.00390625H11.7774C7.76566 0.00390625 4.41796 2.87501 3.80856 6.83201L0.0976562 30.941C0.0390623 31.3316 0.0078125 31.7301 0.0078125 32.1324C0.0078125 34.234 0.816403 36.2027 2.30861 37.691C3.78911 39.1793 5.76951 39.9918 7.86721 39.9918L7.85949 40ZM4.03919 31.5586L7.75009 7.4376C8.05868 5.44931 9.73839 3.99621 11.7618 3.99621H27.9528C29.3044 3.99621 30.5622 4.66808 31.3122 5.7774C32.0739 6.8985 32.2223 8.30861 31.7223 9.55861L26.1012 23.6096C26.0622 23.6994 26.07 23.7893 26.1325 23.8713C26.1911 23.9494 26.2614 23.9924 26.363 23.9924H37.011C38.1399 23.9924 39.1829 24.6135 39.7102 25.6135C40.2414 26.6135 40.1906 27.8127 39.5617 28.7541L22.1637 54.8561C21.6833 55.5671 20.8942 55.9967 20.0348 55.9967C19.2731 55.9967 18.5543 55.6569 18.066 55.0748C17.5777 54.4967 17.3746 53.7232 17.5152 52.9732L20.0855 38.8322C20.2145 38.1213 20.027 37.4025 19.566 36.8517C19.1051 36.301 18.4254 35.9806 17.7144 35.9806H7.86282C6.83162 35.9806 5.86281 35.5822 5.13231 34.8517C4.40184 34.1213 4.00342 33.1525 4.00342 32.1212C4.00342 31.9298 4.02295 31.7306 4.04248 31.5431L4.03919 31.5586Z" fill="#7C3AED"/>
</svg>
