<svg width="60" height="60" viewBox="0 0 60 60" fill="none" xmlns="http://www.w3.org/2000/svg">
<path d="M30 0C13.461 0 0 13.461 0 30C0 46.539 13.461 60 30 60C46.539 60 60 46.539 60 30C60 13.461 46.539 0 30 0ZM28 56.031L25.6719 55.6404C13.1129 53.5193 3.9999 42.7424 3.9999 30.0114C3.9999 25.6012 5.1405 21.2302 7.2811 17.3824L8.4295 15.3238L27.9885 30.9718V56.0308L28 56.031ZM29.5508 27.078L10.9418 12.187L12.7035 10.6089C17.473 6.3472 23.6255 3.9995 30.0045 3.9995C33.6842 3.9995 37.2545 4.76122 40.6135 6.269L42.7737 7.23775L29.5547 27.0658L29.5508 27.078ZM55.6288 34.328C53.789 45.226 45.2308 53.789 34.3278 55.629L31.9997 56.0196V31.9886H56.0307L55.6401 34.3167L55.6288 34.328ZM56.0311 27.9999H33.7421L46.1011 9.4609L47.8199 11.082C51.9293 14.9531 54.6988 20.1328 55.6402 25.66L56.0309 27.9881L56.0311 27.9999Z" fill="#7C3AED"/>
</svg>
