<svg width="60" height="60" viewBox="0 0 60 60" fill="none" xmlns="http://www.w3.org/2000/svg">
<path d="M16.4409 58.8791C25.4995 60.3908 34.6909 60.3791 43.7299 58.8478C47.4487 58.2189 50.851 56.4767 53.5502 53.8087L53.6517 53.7071C56.4134 50.9688 58.2103 47.5157 58.8509 43.7383C59.6204 39.2188 59.9993 34.5899 59.9993 30.0003C59.9993 25.4107 59.6204 20.8987 58.8782 16.4303C57.5696 8.57874 51.4094 2.43034 43.5692 1.12134C39.0887 0.383064 34.5301 0.000244141 30.0102 0.000244141C25.4903 0.000244141 20.7993 0.390863 16.2802 1.14864C12.5614 1.77755 9.17082 3.51974 6.45992 6.18774L6.35835 6.2893C3.60835 9.0198 1.80756 12.469 1.16696 16.2581C0.397426 20.7776 0.0185547 25.4065 0.0185547 29.9961C0.0185547 34.5857 0.397464 39.0977 1.13965 43.5661C2.44825 51.4177 8.60055 57.5661 16.4487 58.8751L16.4409 58.8791ZM5.10085 16.9301C5.60085 13.9809 6.99926 11.2895 9.15166 9.14885L9.22978 9.07073C11.3392 6.96913 14.0189 5.59023 16.9407 5.09023C25.5501 3.64103 34.2927 3.62933 42.9097 5.05898C49.0699 6.09018 53.9097 10.9184 54.9407 17.079C55.6516 21.3407 56.011 25.6806 56.011 29.989C56.011 34.2976 55.6399 38.7585 54.9094 43.059C54.4094 46.0082 53.011 48.6996 50.8586 50.8402L50.7687 50.93C48.6593 53.0198 45.9992 54.3988 43.0773 54.8909C38.7765 55.6214 34.3781 55.9807 30.0073 55.9807C25.6362 55.9807 21.3589 55.6213 17.0973 54.9104C10.9371 53.8792 6.09734 49.051 5.06634 42.8904C4.3554 38.6287 3.99604 34.2888 3.99604 29.9804C3.99604 25.6718 4.36713 21.2109 5.09764 16.9104L5.10085 16.9301Z" fill="black"/>
<path d="M22.1719 36C23.461 37.2891 25.1719 38 27 38C28.8281 38 30.5391 37.2891 31.8281 36L41.4179 26.4102C41.7968 26.0313 42.0078 25.5313 42.0078 25C42.0078 24.4688 41.7968 23.9609 41.4179 23.5898C40.707 22.8789 39.2968 22.8789 38.5898 23.5898L29 33.1796C27.9492 34.2382 26.0586 34.2382 25 33.1796L21.4102 29.5898C21.0313 29.2109 20.5313 29.0117 20 29.0117C19.4687 29.0117 18.9609 29.2227 18.5898 29.5898C18.2187 29.9609 18 30.4688 18 31C18 31.5313 18.2109 32.0391 18.5898 32.4102L22.1796 36H22.1719Z" fill="black"/>
</svg>
