<svg width="88" height="60" viewBox="0 0 88 60" fill="none" xmlns="http://www.w3.org/2000/svg">
<path d="M9.30435 1.60867C8.27093 0.575268 6.90726 0 5.45825 0H4.88295C3.22097 0.159803 1.80406 1.0334 0.823857 2.51423C-0.571777 4.61297 -0.156298 7.56409 1.78268 9.49229L21.4708 29.1801C21.9076 29.6169 21.9076 30.352 21.4708 30.7888L2.02787 50.2314C-0.0496014 52.3088 -0.507716 55.5261 0.941182 57.5929C1.92133 58.9885 3.33826 59.8301 4.979 59.9686C6.55573 60.1071 8.17518 59.4998 9.31493 58.3919L28.8751 38.832C30.8674 36.8398 32.2843 34.3363 32.6359 31.5449C33.1046 27.7524 31.8475 24.0981 29.1948 21.4561L9.31493 1.57662L9.30435 1.60867Z" fill="#7C3AED"/>
<path d="M81.7898 49.0908H57.2437C54.2393 49.0908 51.7891 51.5411 51.7891 54.5454C51.7891 57.5497 54.2394 60 57.2437 60H81.7898C84.7942 60 87.2445 57.5497 87.2445 54.5454C87.2445 51.5411 84.7941 49.0908 81.7898 49.0908Z" fill="#7C3AED"/>
</svg>
