<svg width="45" height="42" viewBox="0 0 45 42" fill="none" xmlns="http://www.w3.org/2000/svg">
<path d="M40.1151 20.7225L40.0159 20.8442C39.6462 21.3063 39.6868 21.9645 40.1016 22.3793C40.3315 22.6092 40.6561 22.7309 40.9784 22.7129C41.3075 22.6948 41.6141 22.5393 41.8147 22.2801L41.8552 22.2282C43.6969 19.9268 44.7743 17.2601 44.9659 14.5234C45.2432 10.5945 43.8118 6.75104 41.0302 3.96963C38.2486 1.18805 34.401 -0.243335 30.4765 0.0339403C27.7422 0.230047 25.0756 1.303 22.7716 3.14461L22.7265 3.18519C22.4673 3.39257 22.3118 3.69913 22.2937 4.02146C22.2757 4.35056 22.3974 4.66839 22.6274 4.90504C23.0421 5.3198 23.7071 5.36038 24.1624 4.9907L24.2842 4.89152C26.0491 3.47819 28.0868 2.61261 30.1765 2.3759C30.598 2.33082 31.0308 2.30603 31.4523 2.30603C34.4525 2.30603 37.2748 3.47814 39.3983 5.60153C41.8283 8.03145 43.0049 11.3946 42.6172 14.8229C42.3873 16.9124 41.5149 18.9479 40.1016 20.7152L40.1151 20.7225Z" fill="black"/>
<path d="M4.89156 21.04L4.99075 20.9183C5.36042 20.4562 5.31985 19.798 4.90509 19.3832C4.69095 19.1691 4.39115 19.0428 4.08457 19.0428H4.02145C3.68785 19.0609 3.39258 19.2164 3.18519 19.4756L3.14461 19.5275C1.303 21.829 0.225519 24.4956 0.0339367 27.2323C-0.243321 31.1613 1.18805 35.0047 3.96963 37.7861C6.75121 40.5677 10.5988 42.0036 14.5234 41.7218C17.2577 41.5257 19.9243 40.4527 22.2282 38.6111L22.2733 38.5705C22.528 38.3631 22.6881 38.0566 22.7061 37.7343C22.7241 37.4052 22.6024 37.0873 22.3725 36.8507C21.9577 36.4359 21.2928 36.3998 20.8374 36.765L20.7157 36.8642C18.9507 38.2775 16.913 39.1431 14.8234 39.3798C11.3904 39.7608 8.03144 38.5886 5.60204 36.1542C3.17212 33.7243 1.99544 30.3611 2.38317 26.9328C2.61309 24.8433 3.48546 22.8078 4.89878 21.0405L4.89156 21.04Z" fill="black"/>
<path d="M19.2794 24.4663L27.3582 16.3875C27.5768 16.1689 27.6986 15.8803 27.6986 15.5738C27.6986 15.2672 27.5768 14.9741 27.3582 14.76C27.1395 14.5413 26.851 14.4264 26.5444 14.4264C26.2378 14.4264 25.9448 14.5481 25.7307 14.76L17.6519 22.8388C17.4332 23.0574 17.3115 23.346 17.3115 23.6525C17.3115 23.9591 17.4332 24.2522 17.6519 24.4663C18.0621 24.8766 18.8759 24.8766 19.2839 24.4663H19.2794Z" fill="black"/>
</svg>
