<svg width="47" height="47" viewBox="0 0 47 47" fill="none" xmlns="http://www.w3.org/2000/svg">
<path d="M42.738 4.24437C39.9957 1.52544 36.2911 0 32.4302 0C28.5693 0 24.8647 1.52544 22.1225 4.24437L19.9735 6.39424C19.6244 6.74351 19.4282 7.21721 19.4282 7.71115C19.4282 8.20509 19.6244 8.6788 19.9735 9.02806C20.3226 9.37733 20.7961 9.57355 21.2899 9.57355C21.7836 9.57355 22.2571 9.37733 22.6062 9.02806L24.7552 6.87819C26.8055 4.91413 29.5431 3.8315 32.3815 3.86226C35.22 3.89302 37.9335 5.03472 39.9407 7.04275C41.9479 9.05077 43.0892 11.7654 43.1199 14.605C43.1507 17.4446 42.0685 20.1834 40.1052 22.2344L37.9562 24.3843C37.6071 24.7335 37.4109 25.2073 37.4109 25.7012C37.4109 26.1951 37.6071 26.6688 37.9562 27.0181C38.3053 27.3674 38.7788 27.5636 39.2726 27.5636C39.7663 27.5636 40.2398 27.3674 40.589 27.0181L42.738 24.8682C45.4671 22.1309 46.9997 18.4225 46.9997 14.5563C46.9997 10.6901 45.4671 6.98174 42.738 4.24437Z" fill="black"/>
<path d="M24.3183 38.0279L22.1693 40.1778C11.5825 49.9592 -2.9488 35.4313 6.81937 24.8215L8.96836 22.6717C9.31749 22.3224 9.51362 21.8487 9.51362 21.3548C9.51362 20.8608 9.31749 20.3871 8.96836 20.0379C8.61924 19.6886 8.14572 19.4924 7.65199 19.4924C7.15825 19.4924 6.68473 19.6886 6.33561 20.0379L4.18661 22.1877C1.48931 24.9302 -0.015451 28.6278 0.000119646 32.4752C0.0156903 36.3226 1.55033 40.0079 4.26974 42.7284C6.98916 45.449 10.673 46.9842 14.5188 46.9998C18.3646 47.0154 22.0607 45.51 24.8021 42.8116L26.9511 40.6617C27.3002 40.3125 27.4963 39.8387 27.4963 39.3448C27.4963 38.8509 27.3002 38.3772 26.9511 38.0279C26.602 37.6786 26.1284 37.4824 25.6347 37.4824C25.141 37.4824 24.6674 37.6786 24.3183 38.0279Z" fill="black"/>
<path d="M28.9701 15.3845L15.3226 29.0376C14.9735 29.3869 14.7773 29.8606 14.7773 30.3545C14.7773 30.8485 14.9735 31.3222 15.3226 31.6714C15.6717 32.0207 16.1452 32.2169 16.639 32.2169C17.1327 32.2169 17.6062 32.0207 17.9554 31.6714L31.6029 18.0184C31.952 17.6691 32.1481 17.1954 32.1481 16.7014C32.1481 16.2075 31.952 15.7338 31.6029 15.3845C31.2538 15.0353 30.7802 14.8391 30.2865 14.8391C29.7928 14.8391 29.3192 15.0353 28.9701 15.3845Z" fill="black"/>
</svg>
