<svg width="60" height="58" viewBox="0 0 60 58" fill="none" xmlns="http://www.w3.org/2000/svg">
<path d="M60 10C60 4.4883 55.5117 0 50 0H20C14.4883 0 10 4.4883 10 10V19C10 20.1016 10.8984 21 12 21C13.1016 21 14 20.1016 14 19V10C14 6.6914 16.6914 4 20 4H50C53.3086 4 56 6.6914 56 10V48C56 51.3086 53.3086 54 50 54H34C32.8984 54 32 54.8984 32 56C32 57.1016 32.8984 58 34 58H50C55.5117 58 60 53.5117 60 48V10Z" fill="black"/>
<path d="M3.0703 57.238C3.96093 57.738 4.9805 57.988 5.9922 57.988C7.0938 57.988 8.1914 57.699 9.1406 57.1091L22.1406 49.1091C23.9023 48.031 24.9922 46.07 24.9922 43.9997C24.9922 41.9294 23.9024 39.9685 22.1406 38.8903L9.1406 30.8903C7.3203 29.7692 4.9297 29.7184 3.0703 30.7614C1.1797 31.82 0 33.8317 0 35.9997V51.9997C0 54.1716 1.1797 56.1794 3.0703 57.238ZM3.99999 36C3.99999 35.2813 4.39061 34.6094 5.01949 34.25C5.32027 34.0782 5.66011 34 5.99996 34C6.37105 34 6.73043 34.1016 7.05076 34.3008L20.0508 42.3008C20.6406 42.6602 21 43.3125 21 44C21 44.6914 20.6289 45.3516 20.0508 45.6992L7.05076 53.6992C6.4492 54.0703 5.64056 54.0898 5.03126 53.7383C4.40235 53.3867 4.00006 52.7188 4.00006 51.9883V35.9883L3.99999 36Z" fill="black"/>
</svg>
