<svg width="60" height="59" viewBox="0 0 60 59" fill="none" xmlns="http://www.w3.org/2000/svg">
<path d="M4.42163 34.641C4.93335 34.3793 5.32007 33.9106 5.48023 33.3598C5.62085 32.8794 5.57007 32.3911 5.33961 31.9887C4.37867 30.3403 3.91771 28.4575 4.01151 26.5395C4.24198 21.2701 8.86311 16.9887 14.3005 16.9887H14.5622C15.4724 16.9887 16.2731 16.3677 16.5036 15.4887C18.1052 9.30905 23.652 4.98875 30.0036 4.98875C36.3552 4.98875 41.9016 9.30905 43.5036 15.4887C43.7341 16.3677 44.5348 16.9887 45.445 16.9887H45.7146C50.9334 16.9887 55.324 20.7582 55.9336 25.7504C56.1953 27.8402 55.8046 29.9106 54.8125 31.7387C54.3515 32.5786 54.4531 33.5981 55.0312 34.2076C55.4804 34.6763 56.082 34.8872 56.7304 34.8091C57.3593 34.731 57.9023 34.3677 58.2187 33.8091C59.3906 31.731 60.0078 29.3677 60.0078 26.981C60.0078 20.0904 54.8789 14.141 48.0588 13.129L46.9494 12.9688L46.508 11.9376C43.6799 5.28925 37.2072 0.988647 29.996 0.988647C22.7851 0.988647 16.316 5.28945 13.484 11.9376L13.0426 12.9688L11.9332 13.129C5.12459 14.1407 -0.0078125 20.0899 -0.0078125 26.981C-0.0078125 29.2818 0.570307 31.5591 1.66409 33.5826C2.2344 34.6412 3.47269 35.1138 4.41409 34.6217L4.42163 34.641Z" fill="#7C3AED"/>
<path d="M46 42C44.8984 42 44 42.8984 44 44V49C44 54.5117 48.4883 59 54 59H56C57.1016 59 58 58.1016 58 57C58 55.8984 57.1016 55 56 55H54C50.6914 55 48 52.3086 48 49V44C48 42.8984 47.1016 42 46 42Z" fill="#7C3AED"/>
<path d="M12 44V49C12 52.3086 9.3086 55 6 55H4C2.8984 55 2 55.8984 2 57C2 58.1016 2.89844 59 4 59H6C11.5117 59 16 54.5117 16 49V44C16 42.8984 15.1016 42 14 42C12.8984 42 12 42.8984 12 44Z" fill="#7C3AED"/>
<path d="M28 34V56.828C28 57.9491 28.7891 58.8983 29.8008 58.9882C30.3789 59.0468 30.9219 58.8593 31.3516 58.4765C31.7735 58.0976 32.0118 57.5546 32.0118 56.996V33.996C32.0118 32.8944 31.1133 31.996 30.0118 31.996C28.9102 31.996 28.0118 32.8944 28.0118 33.996L28 34Z" fill="#7C3AED"/>
</svg>
