<svg width="41" height="40" viewBox="0 0 41 40" fill="none" xmlns="http://www.w3.org/2000/svg">
<path d="M3.02657 22.9942C3.37623 22.8154 3.64046 22.4951 3.7499 22.1188C3.84598 21.7905 3.81129 21.4568 3.65382 21.1819C2.99722 20.0556 2.68225 18.7691 2.74634 17.4586C2.90382 13.858 6.06137 10.9326 9.77667 10.9326H9.9555C10.5774 10.9326 11.1245 10.5083 11.282 9.90771C12.3764 5.68521 16.1664 2.73321 20.5064 2.73321C24.8463 2.73321 28.6361 5.68521 29.7307 9.90771C29.8882 10.5083 30.4353 10.9326 31.0573 10.9326H31.2414C34.8074 10.9326 37.8074 13.5083 38.2239 16.9194C38.4028 18.3473 38.1359 19.762 37.4579 21.0111C37.143 21.585 37.2123 22.2816 37.6074 22.698C37.9143 23.0183 38.3254 23.1624 38.7684 23.109C39.1981 23.0557 39.5692 22.8074 39.7853 22.4257C40.5861 21.0058 41.0078 19.391 41.0078 17.7602C41.0078 13.052 37.5033 8.98682 32.8432 8.29533L32.0852 8.1859L31.7836 7.48129C29.8512 2.93854 25.4285 0 20.5012 0C15.5741 0 11.1538 2.93867 9.21876 7.48129L8.91715 8.1859L8.15911 8.29533C3.5069 8.98661 0 13.0516 0 17.7602C0 19.3323 0.395021 20.8884 1.14239 22.271C1.53207 22.9943 2.37818 23.3172 3.02142 22.981L3.02657 22.9942Z" fill="black"/>
<path d="M31.4364 28.0225C30.6837 28.0225 30.0698 28.6364 30.0698 29.389V32.8055C30.0698 36.5715 33.1366 39.6383 36.9027 39.6383H38.2693C39.022 39.6383 39.6358 39.0244 39.6358 38.2717C39.6358 37.5191 39.0219 36.9052 38.2693 36.9052H36.9027C34.642 36.9052 32.803 35.0662 32.803 32.8055V29.389C32.803 28.6363 32.1891 28.0225 31.4364 28.0225Z" fill="black"/>
<path d="M8.20493 29.389V32.8055C8.20493 35.0662 6.36593 36.9052 4.10521 36.9052H2.73864C1.98593 36.9052 1.37207 37.5191 1.37207 38.2717C1.37207 39.0244 1.98596 39.6383 2.73864 39.6383H4.10521C7.87128 39.6383 10.9381 36.5715 10.9381 32.8055V29.389C10.9381 28.6363 10.3242 28.0225 9.5715 28.0225C8.81882 28.0225 8.20493 28.6364 8.20493 29.389Z" fill="black"/>
<path d="M19.1372 22.5562V38.1543C19.1372 38.9203 19.6764 39.5689 20.3677 39.6303C20.7627 39.6703 21.1337 39.5422 21.4273 39.2806C21.7156 39.0217 21.8784 38.6507 21.8784 38.269V22.5535C21.8784 21.8008 21.2645 21.1869 20.5118 21.1869C19.7591 21.1869 19.1452 21.8008 19.1452 22.5535L19.1372 22.5562Z" fill="black"/>
</svg>
