<svg width="49" height="45" viewBox="0 0 49 45" fill="none" xmlns="http://www.w3.org/2000/svg">
<path d="M0.00620722 29.4798C0.00620722 31.8307 1.2886 33.9928 3.3558 35.1059L19.3288 43.7286C22.4742 45.4238 26.5319 45.4238 29.6774 43.7286L45.6504 35.1059C47.7175 33.9928 49 31.8307 49 29.4798C49 27.1289 47.7655 25.0756 45.7812 23.9433L43.2993 22.52L45.7812 21.0967C47.7655 19.9581 49 17.8375 49 15.5602C49 13.283 47.7176 11.0472 45.6504 9.93416L29.6774 1.31139C28.092 0.450995 26.3055 0 24.5 0C22.6945 0 20.908 0.450979 19.3226 1.31139L3.3496 9.93416C1.28248 11.0472 0 13.2094 0 15.5602C0 17.9111 1.23454 19.9645 3.21877 21.0967L5.70067 22.52L3.21877 23.9433C1.23454 25.082 0 27.2026 0 29.4798H0.00620722ZM4.90614 18.3048C3.90125 17.7643 3.27283 16.7088 3.27283 15.5605C3.27283 14.4155 3.90127 13.3664 4.90614 12.8163L20.8791 4.19348C23.1154 2.99083 25.8939 2.99083 28.1301 4.19348L44.1031 12.8163C45.108 13.3568 45.7364 14.4123 45.7364 15.5605C45.7364 16.7056 45.108 17.7547 44.1031 18.3048L39.7327 20.6621L29.6805 15.2343C26.535 13.5392 22.4773 13.5392 19.3318 15.2343L9.27958 20.6621L4.90916 18.3048H4.90614ZM36.2902 22.5203L28.1332 26.9246C27.0231 27.5227 25.7662 27.8425 24.5061 27.8425C23.2492 27.8425 21.9924 27.5227 20.879 26.9246L12.722 22.5203L20.879 18.1161C23.1153 16.9134 25.8938 16.9134 28.13 18.1161L36.287 22.5203H36.2902ZM4.90614 26.7358L9.27656 24.3786L19.3288 29.8063C22.4742 31.5015 26.5319 31.5015 29.6774 29.8063L39.7296 24.3786L44.1001 26.7358C45.105 27.2764 45.7334 28.3318 45.7334 29.4801C45.7334 30.6251 45.1049 31.6743 44.1001 32.2244L28.1271 40.8472C27.0169 41.4453 25.7601 41.7651 24.5 41.7651C23.2431 41.7651 21.9863 41.4453 20.8729 40.8472L4.89993 32.2244C3.89504 31.6839 3.26662 30.6284 3.26662 29.4801C3.26662 28.3351 3.89506 27.286 4.89993 26.7358H4.90614Z" fill="black"/>
</svg>
