<svg width="60" height="55" viewBox="0 0 60 55" fill="none" xmlns="http://www.w3.org/2000/svg">
<path d="M0.00760078 36.0037C0.00760078 38.8748 1.5779 41.5154 4.1092 42.8748L23.6682 53.4058C27.5198 55.4761 32.4885 55.4761 36.3402 53.4058L55.8992 42.8748C58.4304 41.5154 60.0008 38.8748 60.0008 36.0037C60.0008 33.1326 58.4891 30.6248 56.0594 29.242L53.0203 27.5037L56.0594 25.7654C58.4891 24.3748 60.0008 21.7849 60.0008 19.0037C60.0008 16.2225 58.4305 13.492 55.8992 12.1326L36.3402 1.6016C34.3988 0.550801 32.2113 0 30.0004 0C27.7895 0 25.602 0.550781 23.6606 1.6016L4.1016 12.1326C1.5704 13.492 0 16.1326 0 19.0037C0 21.8748 1.5117 24.3826 3.9414 25.7654L6.9805 27.5037L3.9414 29.242C1.5117 30.6326 0 33.2225 0 36.0037H0.00760078ZM6.0076 22.3557C4.7771 21.6955 4.0076 20.4065 4.0076 19.0041C4.0076 17.6057 4.77713 16.3244 6.0076 15.6525L25.5666 5.1215C28.3049 3.6527 31.7072 3.6527 34.4455 5.1215L54.0045 15.6525C55.235 16.3127 56.0045 17.6017 56.0045 19.0041C56.0045 20.4025 55.235 21.6838 54.0045 22.3557L48.6529 25.2346L36.3439 18.6057C32.4923 16.5354 27.5236 16.5354 23.6719 18.6057L11.3629 25.2346L6.0113 22.3557H6.0076ZM44.4376 27.5041L34.4493 32.883C33.0899 33.6135 31.5509 34.0041 30.0079 34.0041C28.4688 34.0041 26.9298 33.6135 25.5665 32.883L15.5782 27.5041L25.5665 22.1252C28.3048 20.6564 31.7071 20.6564 34.4454 22.1252L44.4337 27.5041H44.4376ZM6.0076 32.6525L11.3592 29.7736L23.6682 36.4025C27.5198 38.4728 32.4885 38.4728 36.3402 36.4025L48.6492 29.7736L54.0008 32.6525C55.2313 33.3127 56.0008 34.6017 56.0008 36.0041C56.0008 37.4025 55.2313 38.6838 54.0008 39.3557L34.4418 49.8867C33.0824 50.6172 31.5434 51.0078 30.0004 51.0078C28.4613 51.0078 26.9223 50.6172 25.559 49.8867L6 39.3557C4.7695 38.6955 4 37.4065 4 36.0041C4 34.6057 4.76953 33.3244 6 32.6525H6.0076Z" fill="#7C3AED"/>
</svg>
