<svg width="60" height="61" viewBox="0 0 60 61" fill="none" xmlns="http://www.w3.org/2000/svg">
<path d="M58 48H51V41C51 39.8984 50.1016 39 49 39C47.8984 39 47 39.8984 47 41V48H40C38.8984 48 38 48.8984 38 50C38 51.1016 38.8984 52 40 52H47V59C47 60.1016 47.8984 61 49 61C50.1016 61 51 60.1016 51 59V52H58C59.1016 52 60 51.1016 60 50C60 48.8984 59.1016 48 58 48Z" fill="black"/>
<path d="M14.4688 31.5L12.4883 32.6211C8.7188 34.75 5.7578 37.2305 3.9297 38.9414C1.4297 41.2695 0 44.5703 0 47.9805V52C0 55.8594 3.1406 59 7 59H29C30.1016 59 31 58.1016 31 57C31 55.8984 30.1016 55 29 55H7C5.3516 55 4 53.6484 4 52V47.9805C4 45.6719 4.96875 43.4414 6.6602 41.8594C8.3321 40.3008 11.0313 38.0391 14.461 36.0977L16.4415 34.9766C17.6915 34.2657 18.5821 33.0547 18.8712 31.6485C19.1603 30.2383 18.84 28.7696 17.9728 27.6173L16.6017 25.797C14.9025 23.5353 14.0001 20.8361 14.0001 17.9962C14.0001 10.8243 19.8282 4.99619 27.0001 4.99619H27.5118C34.211 5.25791 39.6918 10.7071 39.9918 17.4062C40.1207 20.4453 39.2105 23.4179 37.4215 25.7773L36.0426 27.5976C35.3707 28.4765 35.5543 29.7382 36.4332 30.3984C37.3121 31.0703 38.5738 30.8867 39.234 30.0078L40.6129 28.1875C42.9645 25.0781 44.1637 21.1875 43.9918 17.2265C43.6129 8.46476 36.441 1.33546 27.6718 0.99646C27.4726 0.99646 27.2304 0.984741 26.9999 0.984741C17.6288 0.984741 9.99992 8.61364 9.99992 17.9847C9.99992 21.7035 11.1796 25.2347 13.4101 28.1957L14.7812 30.016C14.9531 30.2465 15.0195 30.5356 14.9609 30.8168C14.9023 31.0981 14.7226 31.3481 14.4726 31.4887L14.4688 31.5Z" fill="black"/>
</svg>
