<svg width="44" height="41" viewBox="0 0 44 41" fill="none" xmlns="http://www.w3.org/2000/svg">
<path d="M20.8291 25.3227C20.5517 25.0453 20.1855 24.8908 19.7965 24.8908H19.642C19.1958 24.9337 18.8154 25.1683 18.5522 25.5658C18.1775 26.1293 18.2891 26.9217 18.8097 27.4394L24.0956 32.7253C24.2129 32.8426 24.2129 33.0399 24.0956 33.1572L18.8755 38.3773C18.3177 38.935 18.1947 39.7988 18.5837 40.3537C18.8469 40.7284 19.2273 40.9544 19.6678 40.9916C20.0912 41.0288 20.5259 40.8657 20.832 40.5683L26.0835 35.3167C26.6184 34.7818 26.9988 34.1097 27.0932 33.3602C27.2191 32.342 26.8815 31.3608 26.1693 30.6515L20.832 25.3141L20.8291 25.3227Z" fill="black"/>
<path d="M40.2905 38.071H33.7003C32.8937 38.071 32.2358 38.7289 32.2358 39.5355C32.2358 40.3421 32.8937 41 33.7003 41H40.2905C41.0971 41 41.755 40.3421 41.755 39.5355C41.755 38.7289 41.0971 38.071 40.2905 38.071Z" fill="black"/>
<path d="M35.2023 8.88969L34.3899 8.77241L34.0667 8.01732C31.9959 3.14908 27.2563 0 21.9759 0C16.6958 0 11.9588 3.14923 9.88514 8.01732L9.56192 8.77241L8.74957 8.88969C3.76402 9.62193 0 13.9868 0 19.0327C0 24.6847 4.59936 29.2841 10.2514 29.2841C11.058 29.2841 11.7159 28.6262 11.7159 27.8196C11.7159 27.013 11.058 26.3551 10.2514 26.3551C6.21549 26.3551 2.92897 23.0686 2.92897 19.0327C2.92897 14.9968 6.21549 11.7103 10.2514 11.7103H10.669C11.3355 11.7103 11.9218 11.2555 12.0906 10.6119C13.2633 6.08688 17.3249 2.92338 21.9759 2.92338C26.6268 2.92338 30.6881 6.08688 31.8611 10.6119C32.0299 11.2555 32.6162 11.7103 33.2827 11.7103H33.7003C37.7362 11.7103 41.0227 14.9968 41.0227 19.0327C41.0227 23.0686 37.7362 26.3551 33.7003 26.3551C32.8937 26.3551 32.2358 27.013 32.2358 27.8196C32.2358 28.6262 32.8937 29.2841 33.7003 29.2841C39.3523 29.2841 43.9517 24.6847 43.9517 19.0327C43.9517 13.9871 40.1963 9.63072 35.2023 8.88969Z" fill="black"/>
</svg>
