<svg width="60" height="60" viewBox="0 0 60 60" fill="none" xmlns="http://www.w3.org/2000/svg">
<path d="M24 22C24 24.668 20 24.668 20 22C20 19.332 24 19.332 24 22Z" fill="#7C3AED"/>
<path d="M24 38C24 40.668 20 40.668 20 38C20 35.332 24 35.332 24 38Z" fill="#7C3AED"/>
<path d="M40 22C40 24.668 36 24.668 36 22C36 19.332 40 19.332 40 22Z" fill="#7C3AED"/>
<path d="M40 38C40 40.668 36 40.668 36 38C36 35.332 40 35.332 40 38Z" fill="#7C3AED"/>
<path d="M41.6987 4.89103L42.2495 4.96915C42.4604 5.0004 42.6792 5.02775 42.9097 5.07071C49.0816 6.10191 53.9097 10.9301 54.9407 17.1017C54.9719 17.2931 54.9992 17.5002 55.0305 17.7033L55.1203 18.3244C55.2805 19.4025 56.3 20.1447 57.4015 19.9846C57.9211 19.9064 58.3898 19.6252 58.7023 19.1955C59.0227 18.7658 59.1516 18.2346 59.0734 17.7072L59.0031 17.2463C58.9641 16.9767 58.9328 16.7072 58.882 16.4455C57.5734 8.58608 51.4211 2.43348 43.573 1.12548C43.3113 1.08642 43.0535 1.04736 42.7918 1.00439L42.3308 0.945799C42.2097 0.926268 42.1121 0.92627 42.0105 0.92627C41.0301 0.92627 40.1824 1.65674 40.03 2.62547C39.9519 3.15672 40.0808 3.67627 40.4011 4.10597C40.7214 4.53566 41.1824 4.81691 41.7097 4.89503L41.6987 4.89103Z" fill="#7C3AED"/>
<path d="M2.62057 19.98C3.69087 20.1402 4.72996 19.3706 4.89006 18.3003L4.96819 17.7691C5.00725 17.4878 5.0385 17.2886 5.06975 17.0776C6.08925 10.9174 10.9291 6.08964 17.1007 5.05764C17.2609 5.02639 17.4211 5.00686 17.5695 4.98733L18.3078 4.87795C18.8273 4.79982 19.2883 4.51857 19.6086 4.08889C19.9289 3.6592 20.0578 3.12795 19.9797 2.60059C19.9015 2.06934 19.6203 1.60059 19.1789 1.29199C18.8391 1.04199 18.4289 0.901367 18.007 0.901367C17.9054 0.901367 17.796 0.901367 17.6984 0.920898L17.2179 0.991211C16.9484 1.03027 16.6867 1.06152 16.4289 1.1123C8.57727 2.4209 2.41687 8.5732 1.11987 16.4213C1.08081 16.6908 1.04174 16.9526 0.998779 17.2221L0.940186 17.6713C0.862061 18.2104 0.990968 18.7494 1.31128 19.183C1.63159 19.6127 2.09253 19.8939 2.61988 19.9721L2.62057 19.98Z" fill="#7C3AED"/>
<path d="M40.0204 57.391C40.0985 57.9106 40.3797 58.3715 40.8094 58.6918C41.2508 59.0121 41.7704 59.141 42.2899 59.0707L42.7704 59.0004C43.0399 58.9614 43.2899 58.9301 43.5516 58.8793C51.411 57.5707 57.5716 51.4184 58.8716 43.5593C58.9107 43.3484 58.9302 43.1492 58.9615 42.95L59.0513 42.321C59.1294 41.782 59.0005 41.2429 58.6802 40.821C58.3599 40.3914 57.899 40.1101 57.3716 40.032C57.231 40.0125 57.1412 40.0007 57.0513 40.0007C56.6294 40.0007 56.231 40.1296 55.8911 40.3796C55.4614 40.7 55.1724 41.1687 55.0903 41.6999L55.02 42.2195C54.9888 42.4382 54.9614 42.6687 54.9185 42.8992C53.8873 49.0594 49.0591 53.8992 42.8875 54.9192C42.6687 54.9582 42.4382 54.9895 42.2156 55.0207L41.6765 55.0988C41.157 55.177 40.6961 55.4582 40.3757 55.8879C40.0554 56.3176 39.9265 56.8488 40.0046 57.3762L40.0204 57.391Z" fill="#7C3AED"/>
<path d="M0.941475 42.301L1.00007 42.7502C1.03913 43.0588 1.07819 43.3088 1.12116 43.551C2.42976 51.4104 8.58206 57.571 16.4302 58.871C16.6919 58.9101 16.9497 58.9491 17.2114 58.9921L17.6802 59.0624C17.8012 59.0819 17.8989 59.0936 18.0005 59.0936C18.9809 59.0936 19.8286 58.3632 19.9693 57.3944C20.0474 56.8632 19.9185 56.3436 19.5982 55.9139C19.2779 55.4843 18.8169 55.203 18.2896 55.1249L17.5786 55.0233C17.4068 55.0038 17.2388 54.9725 17.0786 54.9452C10.9067 53.914 6.07864 49.0858 5.04764 42.9142C5.00858 42.6954 4.97733 42.465 4.94608 42.2228L4.87577 41.7033C4.73515 40.7423 3.87577 40.0236 2.89527 40.0236C2.79371 40.0236 2.69605 40.0236 2.59449 40.0431C2.07496 40.1212 1.60621 40.4025 1.28589 40.8321C0.965577 41.2618 0.836667 41.7931 0.914797 42.3204L0.941475 42.301Z" fill="#7C3AED"/>
</svg>
