<svg width="46" height="43" viewBox="0 0 46 43" fill="none" xmlns="http://www.w3.org/2000/svg">
<path d="M18.3997 29.1333V20.7C18.3997 19.8554 17.7109 19.1666 16.8663 19.1666C16.0218 19.1666 15.333 19.8554 15.333 20.7V29.1333C15.333 29.9779 16.0218 30.6666 16.8663 30.6666C17.7109 30.6666 18.3997 29.9778 18.3997 29.1333Z" fill="black"/>
<path d="M6.13307 29.1333V1.53333C6.13307 0.688773 5.44427 0 4.59974 0C3.75521 0 3.06641 0.688804 3.06641 1.53333V29.1333C3.06641 29.9779 3.75521 30.6667 4.59974 30.6667C5.44427 30.6667 6.13307 29.9779 6.13307 29.1333Z" fill="black"/>
<path d="M42.9334 29.1334V15.3334C42.9334 14.4888 42.2446 13.8 41.4 13.8C40.5555 13.8 39.8667 14.4889 39.8667 15.3334V29.1334C39.8667 29.9779 40.5555 30.6667 41.4 30.6667C42.2446 30.6667 42.9334 29.9779 42.9334 29.1334Z" fill="black"/>
<path d="M30.6663 29.1333V7.66663C30.6663 6.82207 29.9775 6.1333 29.1329 6.1333C28.2884 6.1333 27.5996 6.8221 27.5996 7.66663V29.1333C27.5996 29.9779 28.2884 30.6666 29.1329 30.6666C29.9775 30.6666 30.6663 29.9778 30.6663 29.1333Z" fill="black"/>
<path d="M0 41.4C0 42.2446 0.688804 42.9334 1.53333 42.9334H44.4667C45.3112 42.9334 46 42.2446 46 41.4C46 40.5555 45.3112 39.8667 44.4667 39.8667H1.53333C0.688773 39.8667 0 40.5555 0 41.4Z" fill="black"/>
</svg>
