<svg width="58" height="61" viewBox="0 0 58 61" fill="none" xmlns="http://www.w3.org/2000/svg">
<path d="M13.0118 43.0237C16.3907 43.0237 19.5899 41.7229 22.043 39.3518L23.1328 38.2932L36.3438 46.0627L36.1446 47.3908C36.0547 48.0197 36.004 48.5314 36.004 49.0119C36.004 55.0822 40.9337 60.0119 47.004 60.0119C53.0743 60.0119 58.004 55.0822 58.004 49.0119C58.004 42.9416 53.0743 38.0119 47.004 38.0119C44.0352 38.0119 41.254 39.1838 39.1524 41.3205L38.0508 42.4416L25.1408 34.84L25.5314 33.3712C25.8322 32.2423 25.9923 31.1095 25.9923 30.0118C25.9923 28.9102 25.8439 27.793 25.5314 26.6524L25.1408 25.1836L38.0508 17.582L39.1406 18.6914C41.2304 20.8203 44.0195 22 46.9922 22C53.0625 22 57.9922 17.0703 57.9922 11C57.9922 4.9297 53.0625 0 46.9922 0C40.9219 0 35.9922 4.9297 35.9922 11C35.9922 11.4805 36.0312 12 36.1328 12.6211L36.332 13.9492L23.121 21.7187L22.0312 20.6601C19.582 18.289 16.3828 16.9882 13 16.9882C5.8281 16.9882 0 22.8163 0 29.9882C0 37.1601 5.8281 42.9882 13 42.9882L13.0118 43.0237ZM47.0118 42.0237C50.8712 42.0237 54.0118 45.1643 54.0118 49.0237C54.0118 52.8831 50.8712 56.0237 47.0118 56.0237C43.1524 56.0237 40.0118 52.8831 40.0118 49.0237C40.0118 45.1643 43.1524 42.0237 47.0118 42.0237ZM47.0118 4.0237C50.8712 4.0237 54.0118 7.1643 54.0118 11.0237C54.0118 14.8831 50.8712 18.0237 47.0118 18.0237C43.1524 18.0237 40.0118 14.8831 40.0118 11.0237C40.0118 7.1643 43.1524 4.0237 47.0118 4.0237ZM13.0118 21.0237C17.9727 21.0237 22.0118 25.0628 22.0118 30.0237C22.0118 34.9846 17.9727 39.0237 13.0118 39.0237C8.0509 39.0237 4.0118 34.9846 4.0118 30.0237C4.0118 25.0628 8.0509 21.0237 13.0118 21.0237Z" fill="#7C3AED"/>
</svg>
