<svg width="60" height="56" viewBox="0 0 60 56" fill="none" xmlns="http://www.w3.org/2000/svg">
<path d="M24 38V27C24 25.8984 23.1016 25 22 25C20.8984 25 20 25.8984 20 27V38C20 39.1016 20.8984 40 22 40C23.1016 40 24 39.1016 24 38Z" fill="#7C3AED"/>
<path d="M8 38V2C8 0.8984 7.10156 0 6 0C4.89844 0 4 0.89844 4 2V38C4 39.1016 4.89844 40 6 40C7.10156 40 8 39.1016 8 38Z" fill="#7C3AED"/>
<path d="M56 38V20C56 18.8984 55.1016 18 54 18C52.8984 18 52 18.8984 52 20V38C52 39.1016 52.8984 40 54 40C55.1016 40 56 39.1016 56 38Z" fill="#7C3AED"/>
<path d="M40 38V10C40 8.8984 39.1016 8 38 8C36.8984 8 36 8.89844 36 10V38C36 39.1016 36.8984 40 38 40C39.1016 40 40 39.1016 40 38Z" fill="#7C3AED"/>
<path d="M0 54C0 55.1016 0.89844 56 2 56H58C59.1016 56 60 55.1016 60 54C60 52.8984 59.1016 52 58 52H2C0.8984 52 0 52.8984 0 54Z" fill="#7C3AED"/>
</svg>
