<svg width="56" height="60" viewBox="0 0 56 60" fill="none" xmlns="http://www.w3.org/2000/svg">
<path d="M53 18H27C25.35 18 24 19.35 24 21C24 22.65 25.35 24 27 24H53C54.65 24 56 22.65 56 21C56 19.35 54.65 18 53 18Z" fill="black"/>
<path d="M3 24H11C12.65 24 14 22.65 14 21C14 19.35 12.65 18 11 18H3C1.35 18 0 19.35 0 21C0 22.65 1.35 24 3 24Z" fill="black"/>
<path d="M53 36H45C43.35 36 42 37.35 42 39C42 40.65 43.35 42 45 42H53C54.65 42 56 40.65 56 39C56 37.35 54.65 36 53 36Z" fill="black"/>
<path d="M3 60H11C12.65 60 14 58.65 14 57C14 55.35 12.65 54 11 54H3C1.35 54 0 55.35 0 57C0 58.65 1.35 60 3 60Z" fill="black"/>
<path d="M53 0H45C43.35 0 42 1.35 42 3C42 4.65 43.35 6 45 6H53C54.65 6 56 4.65 56 3C56 1.35 54.65 0 53 0Z" fill="black"/>
<path d="M3 42H29C30.65 42 32 40.65 32 39C32 37.35 30.65 36 29 36H3C1.35 36 0 37.35 0 39C0 40.65 1.35 42 3 42Z" fill="black"/>
<path d="M53 54H27C25.35 54 24 55.35 24 57C24 58.65 25.35 60 27 60H53C54.65 60 56 58.65 56 57C56 55.35 54.65 54 53 54Z" fill="black"/>
<path d="M3 6H29C30.65 6 32 4.65 32 3C32 1.35 30.65 0 29 0H3C1.35 0 0 1.35 0 3C0 4.65 1.35 6 3 6Z" fill="black"/>
</svg>
