<svg width="60" height="60" viewBox="0 0 60 60" fill="none" xmlns="http://www.w3.org/2000/svg">
<path d="M30 60C46.539 60 60 46.539 60 30C60 13.461 46.539 0 30 0C13.461 0 0 13.461 0 30C0 46.539 13.461 60 30 60ZM32 4.078C42.789 4.90612 51.762 12.3397 54.852 22.34C53.0122 21.3088 50.7036 20.4494 47.8911 19.7892C42.7895 18.59 37.1611 18.1994 34.2501 18.0783L32.172 17.9885H32.0001L32 4.078ZM32 22L34.0781 22.0898C39.2187 22.3086 56.0001 23.5117 56.0001 30C56.0001 36.4883 39.2301 37.6992 34.0781 37.9102L32 38.0001V22ZM32 42H32.1719L34.25 41.9102C37.1484 41.7891 42.7891 41.3984 47.891 40.1993C50.6996 39.5391 53.0199 38.6798 54.8519 37.6485C51.7621 47.6485 42.7929 55.0895 31.9999 55.9105L32 42ZM28 4.078V17.988H27.8281L25.75 18.0778C22.8516 18.1989 17.2109 18.5896 12.109 19.7887C9.30042 20.4489 6.98012 21.3082 5.14812 22.3395C8.23792 12.3395 17.207 4.899 28 4.078ZM4 30C4 23.5117 20.77 22.3008 25.922 22.0898L28.0001 22V38L25.922 37.9101C20.7814 37.6914 4 36.4883 4 30ZM12.1094 40.199C17.211 41.3982 22.8394 41.7888 25.7504 41.9099L27.8285 41.9997H28.0004V55.9097C17.2114 55.0816 8.23838 47.648 5.14838 37.6477C6.98818 38.6789 9.2969 39.5388 12.1094 40.199Z" fill="black"/>
</svg>
