<svg width="53" height="60" viewBox="0 0 53 60" fill="none" xmlns="http://www.w3.org/2000/svg">
<path d="M28.2461 10V2C28.2461 0.8984 27.3477 0 26.2461 0C25.1445 0 24.2461 0.89844 24.2461 2V10C24.2461 11.1016 25.1445 12 26.2461 12C27.3477 12 28.2461 11.1016 28.2461 10Z" fill="black"/>
<path d="M24.2461 58C24.2461 59.1016 25.1445 60 26.2461 60C27.3477 60 28.2461 59.1016 28.2461 58V50C28.2461 48.8984 27.3477 48 26.2461 48C25.1445 48 24.2461 48.8984 24.2461 50V58Z" fill="black"/>
<path d="M0.996519 17.7299L7.92622 21.7299C8.88716 22.2807 10.1059 21.9487 10.6567 20.9994C10.9262 20.5385 10.9966 19.9994 10.8559 19.4799C10.7153 18.9604 10.3872 18.5307 9.92625 18.269L2.99655 14.269C2.69577 14.0894 2.34811 13.9995 2.00827 13.9995C1.28952 13.9995 0.62937 14.3784 0.26997 14.9995C0.000440329 15.4605 -0.0698703 15.9995 0.0707497 16.519C0.21137 17.0385 0.539499 17.4682 1.00044 17.7299H0.996519Z" fill="black"/>
<path d="M41.6372 40.52C41.7778 41.0395 42.1059 41.4692 42.5669 41.7309L49.4966 45.7309C49.9575 46.0004 50.4966 46.0707 51.0161 45.9301C51.5356 45.7895 51.9653 45.4614 52.227 45.0004C52.4965 44.5395 52.5668 44.0004 52.4262 43.4809C52.2856 42.9614 51.9574 42.5317 51.4965 42.27L44.5668 38.27C44.2582 38.0903 43.9184 38.0005 43.5785 38.0005C43.4066 38.0005 43.227 38.02 43.059 38.0708C42.5395 38.2114 42.1098 38.5396 41.8481 39.0005C41.5786 39.4614 41.5083 40.0005 41.6489 40.52H41.6372Z" fill="black"/>
<path d="M43.0474 21.93C43.5669 22.0706 44.0981 22.0003 44.559 21.7308L51.4887 17.7308C51.9497 17.4612 52.2778 17.0315 52.4184 16.5199C52.5591 16.0003 52.4888 15.4613 52.2192 15.0004C51.8598 14.3793 51.1997 14.0004 50.4809 14.0004C50.1294 14.0004 49.7895 14.0902 49.4809 14.2699L42.5512 18.2699C42.0903 18.5394 41.7622 18.9691 41.6215 19.4808C41.4809 20.0003 41.5512 20.5394 41.8208 21.0003C42.0903 21.4612 42.52 21.7894 43.0395 21.93H43.0474Z" fill="black"/>
<path d="M0.265994 44.9999C0.816774 45.9492 2.04719 46.2811 2.99649 45.7304L9.92619 41.7304C10.3871 41.4609 10.7153 41.0312 10.8559 40.5195C10.9965 40 10.9262 39.4687 10.6567 39C10.3871 38.5391 9.95745 38.2109 9.44577 38.0703C9.27389 38.0195 9.0942 38 8.92623 38C8.57467 38 8.23482 38.0898 7.93795 38.2695L1.00825 42.2695C0.547314 42.5391 0.219193 42.9688 0.0785626 43.4804C-0.0620574 44 0.00825128 44.5312 0.277783 44.9999H0.265994Z" fill="black"/>
</svg>
