<svg width="63" height="62" viewBox="0 0 63 62" fill="none" xmlns="http://www.w3.org/2000/svg">
<path d="M61.8094 26.602C60.2782 12.84 49.1684 1.73102 35.4114 0.204025C19.2004 -1.60458 4.64936 9.57512 2.30936 25.684C2.1492 26.7738 2.91092 27.7934 4.00076 27.9535C5.0906 28.1136 6.11016 27.352 6.27026 26.2621C8.30146 12.3131 20.9113 2.60212 34.9693 4.18412C46.8913 5.51222 56.5083 15.1331 57.8403 27.0551C59.4106 41.1141 49.7114 53.7151 35.7623 55.7461C35.6607 55.7578 35.563 55.7657 35.4732 55.7657C34.3716 55.7657 33.4732 56.6641 33.4732 57.7657C33.4732 58.8672 34.3716 59.7657 35.4732 59.7657C35.7623 59.7657 36.0513 59.7461 36.3443 59.7071C52.4343 57.3673 63.6333 42.8281 61.8243 26.6171L61.8094 26.602Z" fill="black"/>
<path d="M30 13C28.8984 13 28 13.8984 28 15V28C28 31.8594 31.1406 35 35 35H45C46.1016 35 47 34.1016 47 33C47 31.8984 46.1016 31 45 31H35C33.3516 31 32 29.6484 32 28V15C32 13.8984 31.1016 13 30 13Z" fill="black"/>
<path d="M2.00032 44H14.0003C14.4417 44 14.8519 44.0898 15.2386 44.2188L1.54762 58.6288C0.785905 59.4295 0.817154 60.699 1.61794 61.4568C2.00856 61.8279 2.49685 62.0076 2.99684 62.0076C3.52809 62.0076 4.05544 61.7967 4.44604 61.3865L17.915 47.2145C17.9658 47.4763 17.9932 47.7341 17.9932 48.0153V59.8433C17.9932 60.9449 18.8916 61.8433 19.9932 61.8433C21.0948 61.8433 21.9932 60.9449 21.9932 59.8433V48.0153C21.9932 43.6051 18.4034 40.0153 13.9932 40.0153H1.99316C0.891564 40.0153 -0.00683594 40.9138 -0.00683594 42.0153C-0.00683594 43.1169 0.891604 44.0153 1.99316 44.0153L2.00032 44Z" fill="black"/>
</svg>
