<svg width="240" height="62" viewBox="0 0 240 62" fill="none" xmlns="http://www.w3.org/2000/svg">
<path d="M32.12 5.12C32.69 4.55 33 3.8 33 3C33 2.2 32.69 1.45 32.12 0.879999C31.55 0.309999 30.8 0 30 0C29.2 0 28.45 0.309999 27.88 0.879999C27.31 1.45 27 2.2 27 3C27 3.8 27.31 4.55 27.88 5.12C29.01 6.25 30.99 6.25 32.12 5.12Z" fill="#5A31F4"/>
<path d="M61.12 33.12C61.69 32.55 62 31.8 62 31C62 30.2 61.69 29.45 61.12 28.88C60.55 28.31 59.8 28 59 28C58.2 28 57.45 28.31 56.88 28.88C56.31 29.45 56 30.2 56 31C56 31.8 56.31 32.55 56.88 33.12C58.01 34.25 59.99 34.25 61.12 33.12Z" fill="#5A31F4"/>
<path d="M27.88 61.12C29.01 62.25 30.99 62.25 32.12 61.12C32.69 60.55 33 59.8 33 59C33 58.2 32.69 57.45 32.12 56.88C31.55 56.31 30.8 56 30 56C29.2 56 28.45 56.31 27.88 56.88C27.31 57.45 27 58.2 27 59C27 59.8 27.31 60.55 27.88 61.12Z" fill="#5A31F4"/>
<path d="M12.18 55.62C13.46 56.6 15.41 56.33 16.39 55.06C16.88 54.42 17.09 53.64 16.98 52.84C16.87 52.05 16.47 51.34 15.83 50.85C9.59 46.07 6.01 38.84 6.01 31C6.01 23.16 9.59 15.92 15.83 11.15C16.47 10.66 16.87 9.95996 16.98 9.15996C17.09 8.36996 16.88 7.57996 16.39 6.93996C15.39 5.62996 13.5 5.36996 12.18 6.37996C4.44 12.3 0 21.27 0 31C0 40.73 4.44 49.7 12.18 55.62Z" fill="#5A31F4"/>
<path d="M43.5 9.35007C46.65 11.1701 49.42 13.7201 51.51 16.7201C52.42 18.0301 54.37 18.3801 55.69 17.4601C56.35 17.0001 56.79 16.3101 56.93 15.5301C57.07 14.7401 56.89 13.9401 56.44 13.2901C53.85 9.58007 50.42 6.42007 46.52 4.17007C45.83 3.77007 45.02 3.66007 44.24 3.87007C43.47 4.08007 42.82 4.57007 42.42 5.27007C41.59 6.70007 42.08 8.54007 43.51 9.37007L43.5 9.35007Z" fill="#5A31F4"/>
<path d="M42.4 56.75C42.94 57.67 43.93 58.25 45 58.25C45.52 58.25 46.04 58.11 46.5 57.85C50.4 55.59 53.83 52.44 56.42 48.73C56.88 48.07 57.05 47.28 56.91 46.49C56.77 45.7 56.33 45.01 55.67 44.56C55.15 44.2 54.55 44.02 53.96 44.02C53.01 44.02 52.08 44.47 51.49 45.3C49.4 48.3 46.63 50.84 43.48 52.66C42.05 53.49 41.56 55.33 42.39 56.76L42.4 56.75Z" fill="#5A31F4"/>
<path d="M232.563 33.1959C233.297 33.1959 234.074 33.3719 234.895 33.7239C235.746 34.0466 236.538 34.4572 237.271 34.9559H237.227C237.99 35.5132 238.577 36.2319 238.987 37.1119C239.398 37.9919 239.603 39.0479 239.603 40.2799V41.5999C239.603 44.0052 238.811 45.7799 237.227 46.9239C236.465 47.5106 235.687 47.9359 234.895 48.1999C234.103 48.4639 233.326 48.5959 232.563 48.5959H225.083C224.321 48.5959 223.543 48.4639 222.751 48.1999C221.959 47.9359 221.182 47.5106 220.419 46.9239C218.835 45.8092 218.043 44.0346 218.043 41.5999V41.0719C218.043 39.8106 218.85 39.1946 220.463 39.2239C222.106 39.2239 222.927 39.8399 222.927 41.0719V41.5559C222.927 42.2599 223.147 42.9199 223.587 43.5359C224.027 44.1519 224.805 44.4599 225.919 44.4599H231.727C232.842 44.4599 233.619 44.1519 234.059 43.5359C234.499 42.9199 234.719 42.2599 234.719 41.5559V40.3239C234.719 39.9426 234.661 39.5759 234.543 39.2239C234.455 38.8719 234.294 38.5639 234.059 38.2999C233.825 38.0066 233.517 37.7719 233.135 37.5959C232.754 37.4199 232.285 37.3319 231.727 37.3319H225.303C223.807 37.3319 222.238 36.8039 220.595 35.7479C219.041 34.7506 218.263 33.0346 218.263 30.5999V29.1039C218.263 27.9306 218.469 26.9039 218.879 26.0239C219.29 25.1146 219.877 24.3812 220.639 23.8239H220.595C221.329 23.3252 222.106 22.9146 222.927 22.5919C223.749 22.2692 224.541 22.1079 225.303 22.1079H232.343C233.106 22.1079 233.883 22.2692 234.675 22.5919C235.497 22.9146 236.289 23.3252 237.051 23.8239H237.007C237.77 24.3812 238.357 25.1146 238.767 26.0239C239.178 26.9039 239.383 27.9306 239.383 29.1039V29.4999C239.383 30.1159 239.178 30.5706 238.767 30.8639C238.357 31.1279 237.755 31.2746 236.963 31.3039C235.35 31.3332 234.543 30.7319 234.543 29.4999V29.1479C234.543 28.4146 234.309 27.7546 233.839 27.1679C233.399 26.5519 232.637 26.2439 231.551 26.2439H226.095C225.01 26.2439 224.233 26.5519 223.763 27.1679C223.323 27.7546 223.103 28.4146 223.103 29.1479V30.2039C223.103 30.9666 223.323 31.6559 223.763 32.2719C224.233 32.8879 225.01 33.1959 226.095 33.1959H232.563Z" fill="#5A31F4"/>
<path d="M199.642 41.248V46.836C199.642 48.2147 198.836 48.904 197.222 48.904C195.609 48.904 194.802 48.2147 194.802 46.836V15.508C194.802 14.1 195.609 13.396 197.222 13.396C198.836 13.396 199.642 14.1 199.642 15.508V34.164C200.376 33.284 201.182 32.3453 202.062 31.348C202.972 30.3213 203.866 29.2947 204.746 28.268C205.656 27.212 206.55 26.1853 207.43 25.188C208.31 24.1613 209.132 23.208 209.894 22.328V22.372C210.422 21.756 210.95 21.448 211.478 21.448C211.772 21.448 212.05 21.5213 212.314 21.668C212.608 21.7853 212.916 21.9613 213.238 22.196H213.194C213.898 22.7827 214.25 23.3693 214.25 23.956C214.25 24.1613 214.206 24.396 214.118 24.66C214.03 24.8947 213.884 25.1 213.678 25.276L199.642 41.248ZM214.338 45.648C214.544 46.0293 214.646 46.4253 214.646 46.836C214.646 47.5987 214.206 48.1707 213.326 48.552C212.74 48.904 212.212 49.08 211.742 49.08C211.42 49.08 211.112 48.9627 210.818 48.728C210.525 48.5227 210.29 48.2587 210.114 47.936L205.714 39.444C205.45 39.004 205.318 38.564 205.318 38.124C205.318 37.3907 205.7 36.7747 206.462 36.276C206.668 36.1293 206.873 35.9973 207.078 35.88C207.313 35.7627 207.562 35.6747 207.826 35.616C208.149 35.5573 208.457 35.616 208.75 35.792C209.044 35.968 209.293 36.2027 209.498 36.496L214.338 45.648Z" fill="#5A31F4"/>
<path d="M172.787 46.7479C172.787 48.1559 171.98 48.8599 170.367 48.8599C168.753 48.8599 167.947 48.1559 167.947 46.7479V29.0599C167.947 27.8572 168.137 26.8159 168.519 25.9359C168.9 25.0559 169.501 24.3372 170.323 23.7799C171.877 22.6652 173.432 22.1079 174.987 22.1079H182.071C183.567 22.1079 185.121 22.6652 186.735 23.7799C188.319 24.8946 189.111 26.6546 189.111 29.0599V46.7479C189.111 48.1559 188.304 48.8599 186.691 48.8599C185.077 48.8599 184.271 48.1559 184.271 46.7479V29.4559C184.271 28.6932 184.036 27.9599 183.567 27.2559L183.611 27.2999C183.229 26.5959 182.452 26.2439 181.279 26.2439H175.779C174.576 26.2439 173.784 26.5959 173.403 27.2999C172.992 27.9159 172.787 28.6346 172.787 29.4559V46.7479Z" fill="#5A31F4"/>
<path d="M161.833 46.748C161.833 48.156 161.026 48.86 159.413 48.86C157.77 48.86 156.949 48.156 156.949 46.748V24.044C156.949 22.636 157.77 21.932 159.413 21.932C161.026 21.932 161.833 22.636 161.833 24.044V46.748ZM162.757 16.388C162.757 17.3267 162.434 18.1187 161.789 18.764C161.143 19.4093 160.351 19.732 159.413 19.732C158.474 19.732 157.667 19.4093 156.993 18.764C156.347 18.1187 156.025 17.3267 156.025 16.388C156.025 15.42 156.347 14.6133 156.993 13.968C157.667 13.3227 158.474 13 159.413 13C160.351 13 161.143 13.3227 161.789 13.968C162.434 14.6133 162.757 15.42 162.757 16.388Z" fill="#5A31F4"/>
<path d="M134.505 48.6399C133.42 48.6399 132.687 48.3613 132.305 47.8039C131.924 47.2466 131.733 46.6306 131.733 45.9559V15.5519C131.733 14.1439 132.584 13.4399 134.285 13.4399C136.045 13.4399 136.925 14.1439 136.925 15.5519V44.1959H151.621C152.677 44.1959 153.205 44.9146 153.205 46.3519C153.264 47.8773 152.736 48.6399 151.621 48.6399H134.505Z" fill="#5A31F4"/>
<path d="M104.824 18.1039C103.797 18.1039 103.254 17.3559 103.196 15.8599C103.196 14.3932 103.738 13.6599 104.824 13.6599H124.14C125.108 13.6599 125.856 13.8212 126.384 14.1439C126.912 14.4372 127.205 14.8479 127.264 15.3759C127.293 15.8746 127.278 16.3586 127.22 16.8279C127.19 17.2679 127.088 17.6052 126.912 17.8399L109.576 44.1959H125.504C126.589 44.1959 127.132 44.9146 127.132 46.3519C127.19 47.8772 126.648 48.6399 125.504 48.6399H105.792C103.856 48.6399 102.814 48.0532 102.668 46.8799C102.609 46.3812 102.609 45.9266 102.668 45.5159C102.726 45.0759 102.844 44.7386 103.02 44.5039C103.548 43.6826 104.09 42.8319 104.648 41.9519C105.234 41.0719 105.88 40.1039 106.584 39.0479C107.288 37.9919 108.065 36.8039 108.916 35.4839C109.796 34.1639 110.793 32.6679 111.908 30.9959C113.022 29.2946 114.269 27.3879 115.648 25.2759C117.056 23.1639 118.64 20.7732 120.4 18.1039H104.824Z" fill="#5A31F4"/>
<path d="M82.772 48.6399C81.6867 48.6399 80.9533 48.3612 80.572 47.8039C80.1907 47.2466 80 46.6306 80 45.9559V16.2999C80 15.6252 80.1907 15.0239 80.572 14.4959C80.9533 13.9386 81.6867 13.6599 82.772 13.6599H98.084C99.1693 13.6599 99.7413 14.3932 99.8 15.8599C99.8587 17.3559 99.2867 18.1039 98.084 18.1039H85.192V44.1959H98.876C99.9613 44.1959 100.519 44.9146 100.548 46.3519C100.607 47.8772 100.049 48.6399 98.876 48.6399H82.772ZM96.456 30.4239C96.456 31.4506 96.0893 32.3159 95.356 33.0199C94.652 33.7239 93.7867 34.0759 92.76 34.0759C91.7627 34.0759 90.912 33.7239 90.208 33.0199C89.504 32.3159 89.152 31.4506 89.152 30.4239C89.152 29.3972 89.504 28.5319 90.208 27.8279C90.912 27.1239 91.7627 26.7719 92.76 26.7719C93.7867 26.7719 94.652 27.1239 95.356 27.8279C96.0893 28.5319 96.456 29.3972 96.456 30.4239Z" fill="#5A31F4"/>
</svg>
