<svg width="122" height="26" viewBox="0 0 122 26" fill="none" xmlns="http://www.w3.org/2000/svg">
<path d="M13.4696 2.14822C13.7087 1.90907 13.8387 1.59438 13.8387 1.25872C13.8387 0.923065 13.7087 0.608383 13.4696 0.369226C13.2306 0.130068 12.9161 0 12.5806 0C12.2451 0 11.9306 0.130068 11.6916 0.369226C11.4525 0.608383 11.3225 0.923065 11.3225 1.25872C11.3225 1.59438 11.4525 1.90907 11.6916 2.14822C12.1654 2.62234 12.9958 2.62234 13.4696 2.14822Z" fill="#8B5CF6"/>
<path d="M25.631 13.8963C25.87 13.6571 26 13.3425 26 13.0068C26 12.6711 25.87 12.3565 25.631 12.1173C25.3919 11.8781 25.0774 11.7481 24.7419 11.7481C24.4065 11.7481 24.0919 11.8781 23.8529 12.1173C23.6139 12.3565 23.4839 12.6711 23.4839 13.0068C23.4839 13.3425 23.6139 13.6571 23.8529 13.8963C24.3268 14.3704 25.1571 14.3704 25.631 13.8963Z" fill="#8B5CF6"/>
<path d="M11.6916 25.6444C12.1654 26.1185 12.9958 26.1185 13.4696 25.6444C13.7087 25.4053 13.8387 25.0906 13.8387 24.7549C13.8387 24.4192 13.7087 24.1046 13.4696 23.8654C13.2306 23.6263 12.9161 23.4962 12.5806 23.4962C12.2451 23.4962 11.9306 23.6263 11.6916 23.8654C11.4525 24.1046 11.3225 24.4192 11.3225 24.7549C11.3225 25.0906 11.4525 25.4053 11.6916 25.6444Z" fill="#8B5CF6"/>
<path d="M5.10775 23.3367C5.64453 23.7479 6.46227 23.6346 6.87324 23.1017C7.07872 22.8332 7.16679 22.5059 7.12066 22.1703C7.07453 21.8388 6.90679 21.5409 6.6384 21.3353C4.02162 19.3298 2.52033 16.2962 2.52033 13.0068C2.52033 9.71729 4.02162 6.67957 6.6384 4.67819C6.90679 4.4726 7.07453 4.1789 7.12066 3.84324C7.16679 3.51178 7.07872 3.18031 6.87324 2.91178C6.45388 2.36214 5.6613 2.25305 5.10775 2.67682C1.86194 5.16071 0 8.92429 0 13.0068C0 17.0892 1.86194 20.8528 5.10775 23.3367Z" fill="#8B5CF6"/>
<path d="M18.2418 3.92311C19.5628 4.68674 20.7244 5.75666 21.6008 7.01538C21.9824 7.56502 22.8002 7.71187 23.3537 7.32587C23.6305 7.13286 23.815 6.84335 23.8737 6.51609C23.9324 6.18462 23.857 5.84896 23.6683 5.57624C22.5821 4.01962 21.1437 2.69376 19.5082 1.74971C19.2189 1.58188 18.8792 1.53573 18.5521 1.62384C18.2292 1.71195 17.9566 1.91754 17.7889 2.21125C17.4408 2.81124 17.6463 3.58326 18.246 3.9315L18.2418 3.92311Z" fill="#8B5CF6"/>
<path d="M17.7808 23.8108C18.0072 24.1968 18.4224 24.4402 18.8711 24.4402C19.0892 24.4402 19.3072 24.3814 19.5001 24.2724C21.1356 23.3241 22.574 22.0025 23.6601 20.4458C23.8531 20.1689 23.9243 19.8375 23.8656 19.506C23.8069 19.1745 23.6224 18.885 23.3456 18.6962C23.1276 18.5452 22.876 18.4696 22.6285 18.4696C22.2301 18.4696 21.8401 18.6584 21.5927 19.0067C20.7163 20.2654 19.5547 21.3311 18.2337 22.0948C17.634 22.443 17.4285 23.215 17.7766 23.815L17.7808 23.8108Z" fill="#8B5CF6"/>
<path d="M115.983 21.402C115.117 21.402 114.355 21.2627 113.695 20.984C113.049 20.7053 112.536 20.324 112.155 19.84C111.788 19.3413 111.575 18.7547 111.517 18.08H113.893C113.951 18.476 114.164 18.7987 114.531 19.048C114.897 19.2827 115.381 19.4 115.983 19.4H116.929C117.647 19.4 118.19 19.2533 118.557 18.96C118.923 18.6667 119.107 18.278 119.107 17.794C119.107 17.3247 118.938 16.958 118.601 16.694C118.278 16.4153 117.794 16.232 117.149 16.144L115.587 15.902C114.296 15.6967 113.343 15.33 112.727 14.802C112.125 14.2593 111.825 13.46 111.825 12.404C111.825 11.2893 112.184 10.4313 112.903 9.83001C113.636 9.21401 114.714 8.90601 116.137 8.90601H116.973C118.234 8.90601 119.239 9.19934 119.987 9.78601C120.749 10.358 121.182 11.128 121.285 12.096H118.909C118.85 11.744 118.652 11.458 118.315 11.238C117.992 11.018 117.545 10.908 116.973 10.908H116.137C115.447 10.908 114.941 11.04 114.619 11.304C114.311 11.5533 114.157 11.9273 114.157 12.426C114.157 12.866 114.296 13.196 114.575 13.416C114.853 13.636 115.286 13.79 115.873 13.878L117.479 14.142C118.843 14.3327 119.84 14.714 120.471 15.286C121.116 15.8433 121.439 16.6573 121.439 17.728C121.439 18.8867 121.057 19.7887 120.295 20.434C119.547 21.0793 118.425 21.402 116.929 21.402H115.983Z" fill="#8B5CF6"/>
<path d="M99.4028 21.2039V5.14392H101.779V13.9659H103.913L107.125 9.10392H109.809L105.959 14.9119L109.875 21.2039H107.147L103.913 16.0119H101.779V21.2039H99.4028Z" fill="#8B5CF6"/>
<path d="M87.0254 21.204V9.10403H89.3794V11.414H89.9514L89.3794 11.964C89.3794 10.996 89.6654 10.2407 90.2374 9.69803C90.8094 9.15537 91.6014 8.88403 92.6134 8.88403C93.8161 8.88403 94.7767 9.2727 95.4954 10.05C96.2141 10.8127 96.5734 11.8467 96.5734 13.152V21.204H94.1974V13.416C94.1974 12.624 93.9847 12.0154 93.5594 11.59C93.1341 11.1647 92.5547 10.952 91.8214 10.952C91.0734 10.952 90.4794 11.1794 90.0394 11.634C89.6141 12.074 89.4014 12.7194 89.4014 13.57V21.204H87.0254Z" fill="#8B5CF6"/>
<path d="M74.6484 21.204V19.048H78.8944V11.26H75.1984V9.104H81.2044V19.048H85.0984V21.204H74.6484ZM79.8184 7.014C79.3051 7.014 78.8944 6.882 78.5864 6.618C78.2784 6.33933 78.1244 5.97267 78.1244 5.518C78.1244 5.04867 78.2784 4.682 78.5864 4.418C78.8944 4.13933 79.3051 4 79.8184 4C80.3318 4 80.7424 4.13933 81.0504 4.418C81.3584 4.682 81.5124 5.04867 81.5124 5.518C81.5124 5.97267 81.3584 6.33933 81.0504 6.618C80.7424 6.882 80.3318 7.014 79.8184 7.014Z" fill="#8B5CF6"/>
<path d="M62.9526 21.2039V5.14392H65.3286V19.0259H72.3466V21.2039H62.9526Z" fill="#8B5CF6"/>
<path d="M50.0474 21.2039V18.8939L56.8894 7.32192H50.1794V5.14392H59.4194V7.45392L52.5774 19.0259H59.6394V21.2039H50.0474Z" fill="#8B5CF6"/>
<path d="M38 21.2039V5.14392H47.438V7.25592H40.332V11.8099H46.668V13.8999H40.332V19.0919H47.438V21.2039H38Z" fill="#8B5CF6"/>
</svg>
